<?xml version="1.0" encoding="UTF-8" ?>
<!DOCTYPE svg PUBLIC "-//W3C//DTD SVG 1.1//EN" "http://www.w3.org/Graphics/SVG/1.1/DTD/svg11.dtd">
<svg width="1134pt" height="1134pt" viewBox="0 0 1134 1134" version="1.1" xmlns="http://www.w3.org/2000/svg">
<g id="#000000ff">
</g>
<g id="#ffffffff">
<path fill="#ffffff" opacity="1.00" d=" M 371.27 35.22 C 486.17 -7.56 615.10 -10.90 732.29 24.85 C 808.82 48.09 880.34 87.78 940.39 140.63 C 962.20 159.80 982.75 180.46 1001.22 202.88 C 1025.64 231.27 1046.62 262.55 1064.67 295.34 C 1086.03 334.46 1102.87 376.07 1114.42 419.13 C 1126.89 465.12 1133.22 512.71 1134.00 560.34 L 1134.00 573.69 C 1132.82 664.18 1110.25 754.50 1067.20 834.20 C 1062.89 841.93 1058.49 849.61 1054.20 857.35 C 1048.81 865.93 1043.33 874.47 1037.89 883.02 C 1032.06 891.39 1026.06 899.64 1020.15 907.95 C 1014.61 915.12 1008.84 922.11 1003.23 929.22 C 976.58 961.13 946.57 990.24 913.67 1015.65 C 876.08 1044.82 834.68 1068.97 791.11 1088.01 C 724.68 1116.67 652.70 1131.95 580.43 1134.00 L 554.71 1134.00 C 489.83 1132.28 425.13 1120.02 364.53 1096.64 C 341.84 1087.73 319.42 1077.87 298.38 1065.49 C 276.89 1053.44 256.07 1040.22 235.99 1025.94 C 227.20 1019.04 217.92 1012.73 209.56 1005.29 C 170.84 972.62 136.66 934.70 107.42 893.37 C 60.37 827.93 28.03 752.23 11.41 673.45 C 6.05 649.32 2.95 624.72 1.46 600.06 C -0.75 557.62 0.89 514.88 8.08 472.96 C 24.03 376.96 65.44 285.32 127.05 209.99 C 190.82 131.25 276.07 70.00 371.27 35.22 M 558.13 62.47 C 558.13 286.36 558.28 510.26 558.07 734.16 C 679.32 733.92 800.57 733.97 921.82 734.11 C 921.90 756.59 921.65 779.07 921.81 801.56 C 733.27 801.33 544.74 801.45 356.20 801.36 C 356.13 599.26 356.07 397.17 356.07 195.07 C 378.77 195.06 401.46 195.06 424.16 195.07 C 424.29 326.40 424.16 457.74 424.50 589.07 C 425.08 637.43 424.16 685.80 424.41 734.14 C 446.91 733.93 469.42 734.40 491.92 733.70 C 492.26 630.12 491.81 526.54 491.83 422.96 C 491.74 305.05 491.67 187.14 491.75 69.23 C 449.02 76.86 406.99 88.75 367.09 105.92 C 339.71 117.07 313.60 131.27 289.25 148.01 C 288.76 170.66 288.88 193.36 288.73 216.03 C 287.89 339.36 288.76 462.70 288.49 586.03 C 288.57 640.71 288.18 695.40 289.20 750.07 C 291.26 793.41 312.52 835.44 346.25 862.75 C 369.18 881.74 397.42 894.13 426.83 898.65 C 443.41 901.43 460.28 900.80 477.02 900.95 C 629.91 901.06 782.80 901.08 935.69 900.78 C 941.20 899.92 943.97 894.19 947.65 890.59 C 974.03 861.32 996.09 828.36 1014.50 793.58 C 1044.08 734.84 1063.09 670.59 1068.59 604.99 C 1070.24 578.90 1071.03 552.72 1069.55 526.61 L 1070.88 526.61 C 1070.52 526.56 1069.82 526.47 1069.47 526.42 C 1068.91 506.28 1066.22 486.24 1062.30 466.49 C 1046.86 388.89 1013.65 314.60 964.43 252.52 C 932.60 214.03 895.39 179.99 854.13 151.83 C 826.99 133.52 798.41 117.18 768.13 104.66 C 701.95 76.62 630.08 61.54 558.13 62.47 M 145.06 294.95 C 127.68 321.99 113.70 351.10 102.00 381.00 C 84.43 426.10 73.48 473.78 69.78 522.05 C 66.15 567.26 68.21 613.07 77.64 657.49 C 81.43 676.74 86.17 695.84 92.32 714.48 C 98.55 733.37 106.42 751.66 114.19 769.95 C 121.95 787.36 130.35 804.54 140.25 820.84 C 160.63 852.73 182.71 883.69 208.58 911.39 C 236.58 941.46 269.01 967.16 303.42 989.49 C 326.30 1005.11 350.95 1017.97 376.48 1028.65 C 398.62 1038.24 421.56 1045.96 444.94 1051.92 C 493.96 1064.84 544.96 1070.76 595.63 1067.86 C 621.93 1066.07 648.08 1062.24 673.86 1056.78 C 692.97 1052.97 711.62 1047.25 730.11 1041.18 C 749.65 1034.69 768.36 1026.06 787.07 1017.55 C 815.44 1003.99 842.32 987.33 867.10 967.97 C 853.39 967.86 839.68 967.72 825.97 967.87 C 707.30 968.06 588.63 968.09 469.96 967.87 C 454.99 967.77 439.94 968.01 425.09 965.80 C 407.92 964.00 391.06 960.06 374.49 955.34 C 348.36 946.71 324.45 932.23 303.32 914.75 C 265.99 883.80 238.24 841.06 226.63 793.86 C 220.95 768.67 220.13 742.71 220.37 716.99 C 220.43 545.92 220.37 374.86 220.18 203.80 C 191.90 231.30 166.37 261.72 145.06 294.95 Z" />
<path fill="#ffffff" opacity="1.00" d=" M 743.77 212.36 C 786.13 204.50 831.49 216.03 865.17 242.82 C 857.91 249.39 851.88 257.13 845.39 264.42 C 836.33 273.45 827.53 282.74 818.35 291.65 C 804.77 283.96 789.70 278.50 774.03 277.60 C 757.74 276.42 741.37 281.18 727.52 289.63 C 712.83 297.72 700.63 310.24 692.92 325.12 C 683.83 343.53 680.34 364.81 683.96 385.07 C 688.98 412.83 707.92 437.58 733.33 449.78 C 756.56 460.44 784.05 459.81 807.50 450.15 C 809.15 450.40 810.89 450.64 812.25 451.72 C 818.17 455.94 824.42 459.66 830.57 463.52 C 843.34 472.05 855.97 480.81 869.24 488.54 C 867.99 490.84 865.60 492.08 863.65 493.70 C 853.29 502.00 841.29 507.99 829.02 512.90 C 815.33 518.51 800.86 522.33 786.10 523.61 C 775.40 525.28 764.54 524.87 753.79 523.96 C 754.68 523.48 755.60 523.03 756.53 522.61 C 754.82 521.76 753.91 522.71 753.02 523.75 C 721.68 520.88 691.49 507.76 667.69 487.23 C 660.64 480.30 653.57 473.31 647.69 465.33 C 638.72 453.11 630.30 440.25 625.03 425.95 C 612.40 393.33 611.61 356.61 620.58 322.96 C 625.21 307.49 632.07 292.72 641.03 279.29 C 658.41 255.30 681.28 234.80 708.48 222.67 C 719.76 217.78 731.73 214.69 743.77 212.36 Z" />
</g>
</svg>
