<?xml version="1.0" encoding="UTF-8" ?>
<!DOCTYPE svg PUBLIC "-//W3C//DTD SVG 1.1//EN" "http://www.w3.org/Graphics/SVG/1.1/DTD/svg11.dtd">
<svg width="1134pt" height="1134pt" viewBox="0 0 1134 1134" version="1.1" xmlns="http://www.w3.org/2000/svg">
<g id="#ffffffff">
</g>
<g id="#0f1719ff">
<path fill="#0f1719" opacity="1.00" d=" M 446.21 13.15 C 502.48 0.96 560.61 -2.59 617.95 2.52 C 692.08 9.02 764.85 30.44 830.68 65.14 C 891.00 96.73 945.35 139.53 990.64 190.34 C 1048.75 255.47 1091.48 334.24 1114.23 418.51 C 1126.97 465.33 1133.42 513.80 1134.00 562.30 L 1134.00 571.79 C 1133.37 620.44 1127.07 669.09 1114.15 716.03 C 1092.80 795.40 1053.51 869.80 1000.50 932.56 C 951.12 990.99 890.00 1039.56 821.53 1073.76 C 745.88 1112.11 661.38 1132.45 576.63 1134.00 L 557.43 1134.00 C 471.94 1132.42 386.60 1111.88 310.60 1072.45 C 277.38 1054.22 244.97 1034.21 215.44 1010.37 C 164.26 968.36 120.86 917.25 85.76 861.20 C 49.94 802.86 24.58 738.19 10.81 671.15 C 2.71 633.37 -0.09 594.62 0.50 556.04 C 1.79 454.51 31.94 353.71 85.65 267.63 C 124.15 205.79 174.72 151.51 233.60 108.63 C 296.81 62.49 369.74 29.76 446.21 13.15 M 558.10 62.45 C 558.26 67.61 558.19 72.77 558.15 77.93 C 557.84 188.63 558.19 299.32 558.19 410.02 C 558.18 518.06 558.13 626.10 558.04 734.14 C 617.71 733.81 677.40 734.10 737.07 734.00 C 798.64 734.06 860.21 733.87 921.78 734.09 C 921.69 756.57 921.81 779.05 921.71 801.53 C 734.00 801.24 546.28 801.51 358.57 801.39 C 358.62 795.64 358.58 789.89 358.50 784.14 C 358.39 789.96 358.43 795.79 358.40 801.62 C 357.83 801.53 356.71 801.34 356.14 801.25 C 355.96 599.18 355.98 397.10 356.02 195.02 C 378.72 194.97 401.43 195.01 424.13 195.00 C 424.26 317.98 424.35 440.96 424.35 563.95 C 424.25 589.33 424.91 614.70 424.73 640.08 C 424.14 668.37 424.70 696.67 424.25 724.97 C 424.20 728.61 423.99 732.27 424.43 735.90 C 424.46 735.43 424.53 734.49 424.56 734.03 C 446.99 733.92 469.43 734.39 491.86 733.69 C 492.02 725.81 492.05 717.92 492.07 710.03 C 491.75 605.02 491.68 500.01 491.73 394.99 C 491.72 286.40 491.58 177.80 491.63 69.20 C 471.29 72.97 451.04 77.35 431.18 83.16 C 411.66 88.44 392.68 95.50 373.91 102.99 C 344.09 114.82 315.37 129.62 289.07 148.05 C 288.95 163.04 288.93 178.04 288.80 193.04 C 287.73 328.36 288.82 463.68 288.48 599.00 C 288.69 650.33 288.04 701.67 289.24 752.99 C 290.43 771.40 295.22 789.51 302.82 806.29 C 317.39 839.04 343.86 866.11 375.81 882.21 C 396.01 892.56 418.34 898.54 440.93 900.35 C 459.28 901.33 477.67 900.64 496.03 900.93 C 642.39 901.04 788.76 901.12 935.12 900.76 C 939.62 900.95 941.96 896.64 944.71 893.84 C 965.27 871.52 983.35 846.96 999.00 820.97 C 1008.00 805.97 1016.53 790.63 1023.60 774.61 C 1047.66 721.78 1063.33 664.99 1068.40 607.12 C 1070.49 577.15 1071.13 547.01 1069.04 517.04 C 1067.80 493.69 1063.49 470.63 1058.24 447.88 C 1045.73 395.22 1025.05 344.45 996.60 298.38 C 982.83 276.36 967.78 255.00 950.13 235.89 C 906.12 186.68 852.75 145.87 793.77 116.22 C 720.65 80.87 639.46 61.29 558.10 62.45 M 155.29 279.47 C 137.13 305.17 122.13 333.00 109.76 361.91 C 90.78 405.53 77.85 451.81 72.05 499.05 C 66.28 545.86 66.45 593.59 74.25 640.16 C 80.03 673.84 88.34 707.23 101.25 738.94 C 109.84 760.17 118.50 781.45 129.42 801.62 C 136.72 816.39 145.98 830.07 155.26 843.66 C 181.75 882.90 212.44 919.72 249.27 949.70 C 259.96 959.15 271.71 967.26 283.08 975.84 C 296.97 985.05 310.57 994.76 325.00 1003.14 C 343.64 1014.32 363.51 1023.27 383.53 1031.65 C 407.31 1041.63 432.08 1049.03 457.13 1055.02 C 501.17 1065.46 546.64 1070.28 591.88 1068.08 C 617.13 1066.66 642.22 1063.14 667.01 1058.18 C 690.17 1053.90 712.76 1047.05 735.02 1039.48 C 754.07 1032.73 772.46 1024.33 790.76 1015.80 C 817.78 1002.50 843.52 986.58 867.16 967.91 C 848.44 967.52 829.71 967.99 810.99 967.87 C 749.00 968.13 687.02 967.94 625.03 968.00 C 567.66 967.94 510.29 968.15 452.91 967.78 C 426.55 967.56 400.33 963.05 375.08 955.56 C 359.15 950.47 344.00 943.07 329.88 934.14 C 287.02 907.43 252.44 866.97 234.67 819.54 C 221.48 787.47 220.07 752.18 220.31 717.95 C 220.45 546.56 220.41 375.16 220.12 203.77 C 196.22 226.91 174.34 252.19 155.29 279.47 Z" />
<path fill="#0f1719" opacity="1.00" d=" M 718.57 218.59 C 739.30 212.00 761.22 208.34 782.99 210.40 C 812.75 212.83 841.78 224.12 865.13 242.78 C 858.01 249.16 852.13 256.71 845.87 263.88 C 836.73 273.18 827.47 282.36 818.37 291.69 C 803.41 283.01 786.40 277.36 768.98 277.41 C 752.13 277.23 735.89 283.67 721.99 292.83 C 707.44 302.58 695.48 316.53 689.37 333.05 C 683.18 348.53 681.14 365.61 683.37 382.12 C 687.71 412.77 709.21 440.47 738.08 451.84 C 756.47 458.83 777.10 459.35 796.01 454.08 C 800.06 452.99 803.84 451.07 807.92 450.07 C 811.79 450.25 814.29 453.70 817.54 455.38 C 834.80 465.59 850.71 477.90 868.09 487.92 C 869.70 488.16 868.67 489.90 867.87 490.36 C 854.89 501.78 839.04 509.41 822.91 515.28 C 811.36 519.44 799.35 522.53 787.08 523.50 C 776.16 525.37 765.04 524.97 754.06 523.93 L 754.19 522.66 C 755.14 522.62 757.05 522.53 758.00 522.48 C 756.53 522.67 753.56 521.48 753.65 523.90 C 749.16 522.99 744.58 522.80 740.08 522.04 C 713.69 517.22 688.66 505.19 668.23 487.85 C 660.48 480.57 653.12 472.83 646.79 464.26 C 639.46 453.95 632.30 443.40 627.24 431.76 C 613.90 401.40 611.59 366.95 617.70 334.56 C 621.64 314.74 629.73 295.80 641.03 279.07 C 660.53 252.26 686.95 229.56 718.57 218.59 Z" />
</g>
</svg>
